<svg width="1363" height="1188" viewBox="0 0 1363 1188" fill="none" xmlns="http://www.w3.org/2000/svg">
<path fill-rule="evenodd" clip-rule="evenodd" d="M153.314 718.516C174.918 740.056 125.952 917.08 116.923 945.977C106.706 980.81 89.6536 1027.66 88.6118 1063.68C86.4368 1123.07 145.418 1160.75 195.333 1176.37C352.153 1225.5 470.152 1101.08 482.361 951.622C483.75 935.234 488.776 916.825 471.358 906.829C468.58 905.226 461.104 902.568 457.687 902.04C392.583 891.679 353.524 878.114 327.497 865.168C314.959 858.922 303.097 851.529 297.723 841.788C290.229 828.204 295.987 806.063 297.504 785.541C300.318 747.394 306.971 701.236 316.677 630.259C324.17 584.136 334.808 549.03 375.639 523.101C386.423 516.291 405.011 512.03 417.623 509.9C424.239 508.844 426.816 508.625 431.934 505.858C448.913 496.608 445.075 490.435 448.493 467.237L453.629 435.627C455.237 425.631 458.326 415.944 460.995 406.257C476.713 349.045 532.697 340.724 584.696 336.773C591.952 336.245 603.814 336.445 610.229 334.752C615.146 333.477 618.984 330.709 618.034 324.846C617.175 319.748 614.196 316.343 612.057 312.391C597.709 286.226 600.378 257.147 617.778 240.213C635.087 223.37 666.341 219.71 684.271 237.9C686.939 240.668 695.274 249.281 699.112 248.643C705.199 247.678 706.478 239.393 709.366 232.674C710.865 229.269 711.925 226.283 713.533 223.315C719.199 212.026 726.674 201.392 736.087 193.089C747.072 184.276 759.446 174.789 774.214 174.789C783.627 174.789 787.575 190.704 787.575 198.096C779.46 198.096 769.206 201.92 763.01 204.16C747.62 209.695 728.393 225.227 720.807 239.812C718.249 244.71 715.891 248.534 715.891 253.96C715.891 257.056 717.92 259.714 720.807 260.024C727.223 260.879 735.119 259.386 741.424 261.517C754.346 265.778 762.462 280.672 762.462 296.313C762.462 315.997 749.649 327.923 764.71 334.624C768.658 336.336 771.545 335.152 776.243 336.008C866.35 350.975 892.962 346.806 910.636 448.173C912.354 458.078 913.634 488.505 916.083 494.896C921.274 508.553 937.906 509.973 950.261 512.668C961.264 514.379 971.628 516.182 981.132 520.443C1011.73 533.935 1024.07 556.15 1033.39 587.669C1041.45 614.982 1045.32 656.989 1051.24 693.534C1059.94 747.231 1066.01 802.876 1062.92 833.63C1062.19 840.987 1054.53 850.837 1048.65 855.226C1018.4 877.859 964.134 890.732 929.334 896.413C918.751 898.216 904.02 900.255 894.826 903.551C863.298 911.836 884.774 961.964 902.119 1010.87C929.352 1087.62 950.152 1142.83 1034.7 1172.6C1099.99 1195.6 1176.3 1184.16 1234.84 1138.1C1280.61 1102.72 1275.73 1052.84 1261.87 1003.48C1241.07 932.794 1215.12 843.627 1205.14 770.738C1202.32 751.2 1193.5 713.854 1215.72 706.462C1266.59 689.819 1293.22 694.062 1329.11 649.505C1357.94 613.725 1373.35 559.336 1352.24 516.947C1332.95 478.581 1223.18 413.995 1108.85 324.191C1038.98 269.31 977.751 213.719 917.143 157.091C853.556 97.6759 767.195 -3.19961 676.796 0.0779314C608.146 2.5543 554.666 55.5413 508.534 100.025C361.164 242.216 202.9 371.132 35.3698 489.124C17.2021 501.925 2.58024 524.467 0.496625 546.973C-2.33637 577.782 7.13131 609.956 24.2937 637.287C69.5851 709.393 128.548 693.934 153.295 718.57L153.314 718.516ZM684.271 697.831C683.595 698.832 681.621 691.858 677.417 684.12C649.581 638.052 599.592 594.442 543.133 594.606C527.122 594.661 511.203 599.158 496.27 610.229C482.708 620.335 475.544 637.469 471.705 654.385C467.776 672.138 463.755 692.587 458.034 709.502C448.109 739.619 423.581 779.332 432.5 811.343C443.065 848.07 488.447 850.765 519.245 844.446C536.462 841.023 581.022 829.552 596.905 833.266C596.266 835.615 595.735 835.706 593.487 836.562C510.746 872.852 525.532 974.838 510.38 1048.44C499.487 1102.61 480.57 1123.67 476.622 1137.93C469.951 1161.88 479.766 1167.99 500.766 1175.61C555.964 1187.71 606.464 1173.89 641.557 1129.52C687.159 1072.47 655.466 964.841 622.969 908.923C594.73 861.253 602.151 844.865 656.818 829.752C659.377 829.005 663.124 827.203 663.124 823.798C663.124 818.372 641.118 807.829 635.343 804.952C598.294 784.321 576.398 760.104 571.682 736.396C567.515 715.493 577.202 698.723 592.281 688.854C605.112 680.442 621.287 676.454 642.507 685.467C652.743 689.819 662.503 698.85 674.237 708.665C684.49 720.901 687.159 717.605 693.574 709.411C727.716 665.802 785.546 681.716 785.546 735.796C785.546 752.475 779.24 764.456 770.833 775.108C755.169 794.955 729.891 807.883 705.016 818.426C686.647 826.201 667.949 832.119 656.288 841.369C645.249 849.872 649.489 863.383 657.677 872.014C730.494 949.491 721.319 986.564 741.753 1083.36C752.098 1131.65 784.266 1178.28 839.281 1178.28C856.499 1178.28 883.915 1174.24 896.654 1161.58C902.521 1155.63 907.968 1146.89 903.49 1138.5C888.996 1113.82 877.883 1074.68 865.582 1036.84C842.59 966.189 824.056 914.44 756.832 872.214C744.148 864.257 713.752 848.488 698.18 848.488C698.18 844.865 699.533 843.973 703.06 842.589C720.588 835.724 762.845 837.108 781.836 838.783C807.131 841.023 847.908 848.944 868.415 849.745C895.247 850.783 927.323 827.749 927.323 799.344C927.323 776.128 917.764 759.722 910.015 738.691C902.978 719.007 897.312 698.14 892.505 677.71C889.306 664.199 887.168 635.466 879.473 622.702C863.426 596.482 835.297 589.144 805.614 592.913C735.85 601.744 697.65 670.645 687.506 691.749C685.66 695.609 685.349 698.158 684.308 697.867L684.271 697.831Z" fill="#FEFCEF"/>
</svg>
